HIERARCHY
ROOT Hips
{
  OFFSET -1.53133 91.7847 0.210903
  CHANNELS 6 Xposition Yposition Zposition Zrotation Xrotation Yrotation
  JOINT Spine
  {
    OFFSET 0 9.9235 -1.2273
    CHANNELS 6 Xposition Yposition Zposition Zrotation Xrotation Yrotation
    JOINT Spine1
    {
      OFFSET -0.0001 11.6454 -1.4223
      CHANNELS 6 Xposition Yposition Zposition Zrotation Xrotation Yrotation
      JOINT Spine2
      {
        OFFSET 0.0001 13.3602 -1.6265
        CHANNELS 6 Xposition Yposition Zposition Zrotation Xrotation Yrotation
        JOINT Neck
        {
          OFFSET 0 15.0325 0.7929
          CHANNELS 6 Xposition Yposition Zposition Zrotation Xrotation Yrotation
          JOINT Head
          {
            OFFSET 0 10.3218 3.1424
            CHANNELS 6 Xposition Yposition Zposition Zrotation Xrotation Yrotation
            JOINT HeadTop_End
            {
              OFFSET 0.0002 18.4747 6.6364
              CHANNELS 6 Xposition Yposition Zposition Zrotation Xrotation Yrotation
              End Site
              {
                OFFSET 0 0 0
              }
            }
            JOINT LeftEye
            {
              OFFSET 2.9479 7.6817 9.1207
              CHANNELS 6 Xposition Yposition Zposition Zrotation Xrotation Yrotation
              End Site
              {
                OFFSET 0 0 0
              }
            }
            JOINT RightEye
            {
              OFFSET -2.9445 7.6817 9.1205
              CHANNELS 6 Xposition Yposition Zposition Zrotation Xrotation Yrotation
              End Site
              {
                OFFSET 0 0 0
              }
            }
          }
        }
        JOINT LeftShoulder
        {
          OFFSET 6.1058 9.1104 0.7056
          CHANNELS 6 Xposition Yposition Zposition Zrotation Xrotation Yrotation
          JOINT LeftArm
          {
            OFFSET 12.655 -0.2659 -2.6009
            CHANNELS 6 Xposition Yposition Zposition Zrotation Xrotation Yrotation
            JOINT LeftForeArm
            {
              OFFSET 27.4047 0 0
              CHANNELS 6 Xposition Yposition Zposition Zrotation Xrotation Yrotation
              JOINT LeftHand
              {
                OFFSET 27.6145 0 0
                CHANNELS 6 Xposition Yposition Zposition Zrotation Xrotation Yrotation
                JOINT LeftHandMiddle1
                {
                  OFFSET 12.7755 0 0
                  CHANNELS 6 Xposition Yposition Zposition Zrotation Xrotation Yrotation
                  JOINT LeftHandMiddle2
                  {
                    OFFSET 3.614 0 0
                    CHANNELS 6 Xposition Yposition Zposition Zrotation Xrotation Yrotation
                    JOINT LeftHandMiddle3
                    {
                      OFFSET 3.4598 0 0
                      CHANNELS 6 Xposition Yposition Zposition Zrotation Xrotation Yrotation
                      End Site
                      {
                        OFFSET 3.6802 0 0
                      }
                    }
                  }
                }
                JOINT LeftHandThumb1
                {
                  OFFSET 3.7888 -2.167 3.0031
                  CHANNELS 6 Xposition Yposition Zposition Zrotation Xrotation Yrotation
                  JOINT LeftHandThumb2
                  {
                    OFFSET 3.6754 -2.122 2.122
                    CHANNELS 6 Xposition Yposition Zposition Zrotation Xrotation Yrotation
                    JOINT LeftHandThumb3
                    {
                      OFFSET 3.3944 -1.9597 1.9598
                      CHANNELS 6 Xposition Yposition Zposition Zrotation Xrotation Yrotation
                      End Site
                      {
                        OFFSET 2.6794 -1.5469 1.5469
                      }
                    }
                  }
                }
                JOINT LeftHandIndex1
                {
                  OFFSET 12.2666 -0.2317 2.8221
                  CHANNELS 6 Xposition Yposition Zposition Zrotation Xrotation Yrotation
                  JOINT LeftHandIndex2
                  {
                    OFFSET 3.892 0 0
                    CHANNELS 6 Xposition Yposition Zposition Zrotation Xrotation Yrotation
                    JOINT LeftHandIndex3
                    {
                      OFFSET 3.4152 0 0
                      CHANNELS 6 Xposition Yposition Zposition Zrotation Xrotation Yrotation
                      End Site
                      {
                        OFFSET 3.078 0 0
                      }
                    }
                  }
                }
                JOINT LeftHandRing1
                {
                  OFFSET 12.147 0.0099 -2.2166
                  CHANNELS 6 Xposition Yposition Zposition Zrotation Xrotation Yrotation
                  JOINT LeftHandRing2
                  {
                    OFFSET 3.6012 0 0
                    CHANNELS 6 Xposition Yposition Zposition Zrotation Xrotation Yrotation
                    JOINT LeftHandRing3
                    {
                      OFFSET 3.3073 0 0
                      CHANNELS 6 Xposition Yposition Zposition Zrotation Xrotation Yrotation
                      End Site
                      {
                        OFFSET 3.6601 0 0
                      }
                    }
                  }
                }
                JOINT LeftHandPinky1
                {
                  OFFSET 10.9082 -0.2264 -4.7258
                  CHANNELS 6 Xposition Yposition Zposition Zrotation Xrotation Yrotation
                  JOINT LeftHandPinky2
                  {
                    OFFSET 4.1367 0 0
                    CHANNELS 6 Xposition Yposition Zposition Zrotation Xrotation Yrotation
                    JOINT LeftHandPinky3
                    {
                      OFFSET 2.5948 0 0
                      CHANNELS 6 Xposition Yposition Zposition Zrotation Xrotation Yrotation
                      End Site
                      {
                        OFFSET 2.9239 0 0
                      }
                    }
                  }
                }
              }
            }
          }
        }
        JOINT RightShoulder
        {
          OFFSET -6.1057 9.1105 0.7056
          CHANNELS 6 Xposition Yposition Zposition Zrotation Xrotation Yrotation
          JOINT RightArm
          {
            OFFSET -12.655 -0.266 -2.6009
            CHANNELS 6 Xposition Yposition Zposition Zrotation Xrotation Yrotation
            JOINT RightForeArm
            {
              OFFSET -27.4047 0 0
              CHANNELS 6 Xposition Yposition Zposition Zrotation Xrotation Yrotation
              JOINT RightHand
              {
                OFFSET -27.6145 0 0
                CHANNELS 6 Xposition Yposition Zposition Zrotation Xrotation Yrotation
                JOINT RightHandMiddle1
                {
                  OFFSET -12.7755 0 0
                  CHANNELS 6 Xposition Yposition Zposition Zrotation Xrotation Yrotation
                  JOINT RightHandMiddle2
                  {
                    OFFSET -3.614 0 0
                    CHANNELS 6 Xposition Yposition Zposition Zrotation Xrotation Yrotation
                    JOINT RightHandMiddle3
                    {
                      OFFSET -3.4598 0 0
                      CHANNELS 6 Xposition Yposition Zposition Zrotation Xrotation Yrotation
                      End Site
                      {
                        OFFSET -3.6802 0 0
                      }
                    }
                  }
                }
                JOINT RightHandThumb1
                {
                  OFFSET -3.7888 -2.167 3.0031
                  CHANNELS 6 Xposition Yposition Zposition Zrotation Xrotation Yrotation
                  JOINT RightHandThumb2
                  {
                    OFFSET -3.6754 -2.122 2.122
                    CHANNELS 6 Xposition Yposition Zposition Zrotation Xrotation Yrotation
                    JOINT RightHandThumb3
                    {
                      OFFSET -3.3944 -1.9597 1.9598
                      CHANNELS 6 Xposition Yposition Zposition Zrotation Xrotation Yrotation
                      End Site
                      {
                        OFFSET -2.6794 -1.5469 1.5469
                      }
                    }
                  }
                }
                JOINT RightHandIndex1
                {
                  OFFSET -12.2666 -0.2317 2.8221
                  CHANNELS 6 Xposition Yposition Zposition Zrotation Xrotation Yrotation
                  JOINT RightHandIndex2
                  {
                    OFFSET -3.892 0 0
                    CHANNELS 6 Xposition Yposition Zposition Zrotation Xrotation Yrotation
                    JOINT RightHandIndex3
                    {
                      OFFSET -3.4152 0 0
                      CHANNELS 6 Xposition Yposition Zposition Zrotation Xrotation Yrotation
                      End Site
                      {
                        OFFSET -3.078 0 0
                      }
                    }
                  }
                }
                JOINT RightHandRing1
                {
                  OFFSET -12.147 0.0099 -2.2166
                  CHANNELS 6 Xposition Yposition Zposition Zrotation Xrotation Yrotation
                  JOINT RightHandRing2
                  {
                    OFFSET -3.6012 0 0
                    CHANNELS 6 Xposition Yposition Zposition Zrotation Xrotation Yrotation
                    JOINT RightHandRing3
                    {
                      OFFSET -3.3073 0 0
                      CHANNELS 6 Xposition Yposition Zposition Zrotation Xrotation Yrotation
                      End Site
                      {
                        OFFSET -3.6601 0 0
                      }
                    }
                  }
                }
                JOINT RightHandPinky1
                {
                  OFFSET -10.9082 -0.2264 -4.7258
                  CHANNELS 6 Xposition Yposition Zposition Zrotation Xrotation Yrotation
                  JOINT RightHandPinky2
                  {
                    OFFSET -4.1367 0 0
                    CHANNELS 6 Xposition Yposition Zposition Zrotation Xrotation Yrotation
                    JOINT RightHandPinky3
                    {
                      OFFSET -2.5948 0 0
                      CHANNELS 6 Xposition Yposition Zposition Zrotation Xrotation Yrotation
                      End Site
                      {
                        OFFSET -2.9239 0 0
                      }
                    }
                  }
                }
              }
            }
          }
        }
      }
    }
  }
  JOINT RightUpLeg
  {
    OFFSET -9.1245 -6.6564 -0.0554
    CHANNELS 6 Xposition Yposition Zposition Zrotation Xrotation Yrotation
    JOINT RightLeg
    {
      OFFSET -0.2447 -40.5954 -0.5145
      CHANNELS 6 Xposition Yposition Zposition Zrotation Xrotation Yrotation
      JOINT RightFoot
      {
        OFFSET 0.2447 -42.0479 -2.0602
        CHANNELS 6 Xposition Yposition Zposition Zrotation Xrotation Yrotation
        JOINT RightToeBase
        {
          OFFSET -0.3734 -10.4922 12.6407
          CHANNELS 6 Xposition Yposition Zposition Zrotation Xrotation Yrotation
          End Site
          {
            OFFSET 0 0 9.9925
          }
        }
      }
    }
  }
  JOINT LeftUpLeg
  {
    OFFSET 9.1245 -6.6564 -0.0554
    CHANNELS 6 Xposition Yposition Zposition Zrotation Xrotation Yrotation
    JOINT LeftLeg
    {
      OFFSET 0.2447 -40.5954 -0.517
      CHANNELS 6 Xposition Yposition Zposition Zrotation Xrotation Yrotation
      JOINT LeftFoot
      {
        OFFSET -0.2447 -42.048 -2.0576
        CHANNELS 6 Xposition Yposition Zposition Zrotation Xrotation Yrotation
        JOINT LeftToeBase
        {
          OFFSET 0.3734 -10.4922 12.6407
          CHANNELS 6 Xposition Yposition Zposition Zrotation Xrotation Yrotation
          End Site
          {
            OFFSET 0 0 9.9925
          }
        }
      }
    }
  }
}
MOTION
Frames:	4
Frame Time:	0.0166667
-1.97216 90.4548 84.3415 -4.35698 8.92535 -9.34873 0 9.9235 -1.2273 0.852624 2.83375 1.75513 -0.0001 11.6454 -1.4223 -1.27636 6.05368 3.19379 0.0001 13.3602 -1.6265 -1.29802 6.03801 3.21654 0 15.0325 0.7929 1.66295 -2.68227 1.06965 -1.77636e-015 10.3218 3.1424 5.96961 -10.1651 0.255619 0.0002 18.4747 6.6364 1.98785e-016 1.59028e-015 -3.97569e-016 2.9479 7.6817 9.1207 1.98785e-016 1.59028e-015 -3.97569e-016 -2.9445 7.6817 9.1205 1.98785e-016 1.59028e-015 -3.97569e-016 6.1058 9.1104 0.7056 -11.6581 0.207554 2.50965 12.655 -0.2659 -2.6009 12.2556 31.709 -92.9989 27.4047 0 0 7.59526e-005 -7.20904e-006 -95.422 27.6145 2.84217e-014 7.10543e-015 -23.1207 -36.8806 -5.04212 12.7755 0 1.42109e-014 -30.3248 -0.946513 3.49177 3.614 0 -1.42109e-014 -22.0628 -0.506379 2.59698 3.4598 -7.10543e-015 1.42109e-014 -11.0262 -0.127583 1.32199 3.7888 -2.167 3.0031 12.1976 -9.59293 4.00117 3.6754 -2.122 2.122 4.0543 -1.74021 25.8581 3.3944 -1.9597 1.9598 3.91277 -3.24006 10.8018 12.2666 -0.2317 2.8221 -30.3408 -0.947491 3.49343 3.892 -1.42109e-014 0 -22.0468 -0.505632 2.5952 3.4152 0 1.42109e-014 -11.0262 -0.127596 1.32198 12.147 0.0099 -2.2166 -30.3408 -0.947491 3.49343 3.6012 0 0 -22.0468 -0.505632 2.5952 3.3073 0 2.84217e-014 -11.0262 -0.127596 1.32198 10.9082 -0.2264 -4.7258 -29.8332 -0.898399 7.55596 4.1367 0 -1.42109e-014 -22.5398 1.03291 -1.15602 2.5948 -7.10543e-015 0 -11.0262 -0.127585 1.322 -6.1057 9.1105 0.7056 10.8557 0.213821 -2.34774 -12.655 -0.266 -2.6009 41.137 40.8811 44.9022 -27.4047 0 7.10543e-015 -3.86374e-005 -1.61751e-005 12.2125 -27.6145 0 0 -1.73851 -9.74326 4.45502 -12.7755 1.42109e-014 0 1.28339e-006 -5.93743e-007 -3.30325e-006 -3.614 0 -1.42109e-014 2.78418e-005 -3.51962e-007 -1.40853e-005 -3.4598 0 0 1.46105e-005 -1.98612e-006 9.04626e-006 -3.7888 -2.167 3.0031 -17.8481 3.10914 -5.87485 -3.6754 -2.122 2.122 -1.02094 6.21607 -21.8032 -3.3944 -1.9597 1.9598 -2.77734 -0.353712 -6.50639 -12.2666 -0.2317 2.8221 1.28339e-006 -5.93743e-007 -3.30325e-006 -3.892 0 1.42109e-014 1.15472e-006 4.69151e-006 -4.37256e-006 -3.4152 0 0 3.1763e-006 -5.68108e-006 -2.91377e-006 -12.147 0.0099 -2.2166 1.28339e-006 -5.93743e-007 -3.30325e-006 -3.6012 1.42109e-014 0 1.20609e-005 -3.51661e-007 -8.17393e-006 -3.3073 0 -1.42109e-014 -3.38407e-006 -5.42504e-006 -8.15613e-006 -10.9082 -0.2264 -4.7258 1.28339e-006 -5.93743e-007 -3.30325e-006 -4.1367 0 0 1.15472e-006 4.69151e-006 -4.37256e-006 -2.5948 -1.42109e-014 -1.42109e-014 3.1763e-006 -5.68108e-006 -2.91377e-006 -9.1245 -6.6564 -0.0554 -1.78888 1.23305 -12.3636 -0.2447 -40.5954 -0.5145 0.674796 35.5492 5.60577 0.2447 -42.0479 -2.0602 3.65625 -3.2567 2.24012 -0.3734 -10.4922 12.6407 1.14522 -46.6239 0.751202 9.1245 -6.6564 -0.0554 15.4252 -50.3283 12.8077 0.2447 -40.5954 -0.517 0.155381 31.0246 7.18838 -0.2447 -42.048 -2.0576 0.459418 2.29277 -0.478946 0.3734 -10.4922 12.6407 -4.67626e-007 -0.00473105 -6.27638e-008 
-1.67294 89.6734 87.4797 -3.47333 8.13297 -9.43465 0 9.9235 -1.2273 0.390806 3.01836 1.68823 -0.0001 11.6454 -1.4223 -1.5291 6.33945 3.26765 0.0001 13.3602 -1.6265 -1.54629 6.3266 3.28605 -1.77636e-015 15.0325 0.7929 1.60218 -2.63065 1.05042 -1.77636e-015 10.3218 3.1424 5.9941 -10.0838 0.0806832 0.0002 18.4747 6.6364 -6.95746e-016 -3.18055e-015 3.97569e-016 2.9479 7.6817 9.1207 -6.95746e-016 -3.18055e-015 3.97569e-016 -2.9445 7.6817 9.1205 -6.95746e-016 -3.18055e-015 3.97569e-016 6.1058 9.1104 0.7056 -11.7112 0.213338 2.48842 12.655 -0.2659 -2.6009 12.1341 31.5789 -92.869 27.4047 0 0 4.57071e-005 -1.45207e-006 -95.4607 27.6145 0 -7.10543e-015 -23.5516 -36.7009 -5.24396 12.7755 0 0 -30.3248 -0.946513 3.49177 3.614 0 -1.42109e-014 -22.0628 -0.506356 2.59698 3.4598 0 -1.42109e-014 -11.0262 -0.127615 1.32198 3.7888 -2.167 3.0031 12.1976 -9.59293 4.00117 3.6754 -2.122 2.122 4.0543 -1.74021 25.8581 3.3944 -1.9597 1.9598 3.91277 -3.24006 10.8018 12.2666 -0.2317 2.8221 -30.3408 -0.947491 3.49343 3.892 0 1.42109e-014 -22.0468 -0.505633 2.59519 3.4152 0 0 -11.0262 -0.127612 1.32198 12.147 0.0099 -2.2166 -30.3408 -0.947491 3.49343 3.6012 0 0 -22.0468 -0.505633 2.59519 3.3073 0 0 -11.0262 -0.127612 1.32198 10.9082 -0.2264 -4.7258 -29.8332 -0.898399 7.55596 4.1367 0 0 -22.5397 1.0329 -1.156 2.5948 7.10543e-015 0 -11.0262 -0.127611 1.32198 -6.1057 9.1105 0.7056 10.858 0.211303 -2.36151 -12.655 -0.266 -2.6009 40.6274 40.7477 45.1526 -27.4047 0 0 1.51934e-006 6.58001e-006 12.9898 -27.6145 0 -7.10543e-015 -2.53445 -10.3774 4.79927 -12.7755 0 0 1.28339e-006 -5.93743e-007 -3.30325e-006 -3.614 0 1.42109e-014 2.78418e-005 -3.51962e-007 -1.40853e-005 -3.4598 0 0 1.46105e-005 -1.98612e-006 9.04626e-006 -3.7888 -2.167 3.0031 -17.8481 3.10914 -5.87485 -3.6754 -2.122 2.122 -1.02094 6.21607 -21.8032 -3.3944 -1.9597 1.9598 -2.77734 -0.353712 -6.50639 -12.2666 -0.2317 2.8221 1.28339e-006 -5.93743e-007 -3.30325e-006 -3.892 -2.84217e-014 0 1.15472e-006 4.69151e-006 -4.37256e-006 -3.4152 0 0 3.1763e-006 -5.68108e-006 -2.91377e-006 -12.147 0.0099 -2.2166 1.28339e-006 -5.93743e-007 -3.30325e-006 -3.6012 0 0 1.20609e-005 -3.51661e-007 -8.17393e-006 -3.3073 0 0 -3.38407e-006 -5.42504e-006 -8.15613e-006 -10.9082 -0.2264 -4.7258 1.28339e-006 -5.93743e-007 -3.30325e-006 -4.1367 -1.42109e-014 0 1.15472e-006 4.69151e-006 -4.37256e-006 -2.5948 1.42109e-014 0 3.1763e-006 -5.68108e-006 -2.91377e-006 -9.1245 -6.6564 -0.0554 -4.27693 1.35224 -12.5671 -0.2447 -40.5954 -0.5145 0.639159 38.4786 4.41223 0.2447 -42.0479 -2.0602 4.70017 4.08553 2.67281 -0.3734 -10.4922 12.6407 1.90195 -56.8182 1.36643 9.1245 -6.6564 -0.0554 13.5032 -50.6577 10.8985 0.2447 -40.5954 -0.517 0.193718 34.5259 7.62166 -0.2447 -42.048 -2.0576 -0.0548793 5.60599 -0.449996 0.3734 -10.4922 12.6407 2.29891e-007 -0.00321687 -6.04073e-006 
-1.38514 89.1139 90.6605 -2.66542 7.37438 -9.51121 -8.88178e-016 9.9235 -1.2273 0.0848893 3.19574 1.64241 -0.0001 11.6454 -1.4223 -1.77674 6.62713 3.35271 0.0001 13.3602 -1.6265 -1.79043 6.61648 3.36782 0 15.0325 0.7929 1.51979 -2.57305 1.02733 0 10.3218 3.1424 5.9679 -10.1797 -0.116145 0.0002 18.4747 6.6364 -9.93923e-017 -3.18055e-015 3.97569e-016 2.9479 7.6817 9.1207 -9.93923e-017 -3.18055e-015 3.97569e-016 -2.9445 7.6817 9.1205 -9.93923e-017 -3.18055e-015 3.97569e-016 6.1058 9.1104 0.7056 -11.7787 0.220654 2.46134 12.655 -0.2659 -2.6009 12.0993 31.4198 -92.9117 27.4047 0 8.88178e-016 -1.50292e-005 4.57833e-006 -95.7401 27.6145 0 -7.10543e-015 -23.8656 -36.5064 -5.11257 12.7755 -1.42109e-014 -1.42109e-014 -30.3248 -0.946513 3.49177 3.614 0 -2.84217e-014 -22.0628 -0.50636 2.59699 3.4598 0 -1.42109e-014 -11.0262 -0.12759 1.32199 3.7888 -2.167 3.0031 12.1976 -9.59293 4.00117 3.6754 -2.122 2.122 4.0543 -1.74021 25.8581 3.3944 -1.9597 1.9598 3.91277 -3.24006 10.8018 12.2666 -0.2317 2.8221 -30.3408 -0.947491 3.49343 3.892 1.42109e-014 -1.42109e-014 -22.0468 -0.505632 2.59519 3.4152 0 0 -11.0262 -0.127594 1.322 12.147 0.0099 -2.2166 -30.3408 -0.947491 3.49343 3.6012 -1.42109e-014 0 -22.0468 -0.505632 2.59519 3.3073 0 -1.42109e-014 -11.0262 -0.127594 1.322 10.9082 -0.2264 -4.7258 -29.8332 -0.898399 7.55596 4.1367 1.42109e-014 0 -22.5398 1.03292 -1.15599 2.5948 0 0 -11.0262 -0.127621 1.32199 -6.1057 9.1105 0.7056 10.8385 0.206765 -2.38328 -12.655 -0.266 -2.6009 39.5418 40.6204 45.8144 -27.4047 -1.42109e-014 7.10543e-015 1.58946e-005 2.88742e-006 14.2013 -27.6145 0 7.10543e-015 -3.44068 -11.6676 5.09176 -12.7755 0 1.42109e-014 1.28339e-006 -5.93743e-007 -3.30325e-006 -3.614 1.42109e-014 1.42109e-014 2.78418e-005 -3.51962e-007 -1.40853e-005 -3.4598 0 0 1.46105e-005 -1.98612e-006 9.04626e-006 -3.7888 -2.167 3.0031 -17.8481 3.10914 -5.87485 -3.6754 -2.122 2.122 -1.02094 6.21607 -21.8032 -3.3944 -1.9597 1.9598 -2.77734 -0.353712 -6.50639 -12.2666 -0.2317 2.8221 1.28339e-006 -5.93743e-007 -3.30325e-006 -3.892 0 0 1.15472e-006 4.69151e-006 -4.37256e-006 -3.4152 0 0 3.1763e-006 -5.68108e-006 -2.91377e-006 -12.147 0.0099 -2.2166 1.28339e-006 -5.93743e-007 -3.30325e-006 -3.6012 -1.42109e-014 1.42109e-014 1.20609e-005 -3.51661e-007 -8.17393e-006 -3.3073 0 -1.42109e-014 -3.38407e-006 -5.42504e-006 -8.15613e-006 -10.9082 -0.2264 -4.7258 1.28339e-006 -5.93743e-007 -3.30325e-006 -4.1367 0 0 1.15472e-006 4.69151e-006 -4.37256e-006 -2.5948 -1.42109e-014 1.42109e-014 3.1763e-006 -5.68108e-006 -2.91377e-006 -9.1245 -6.6564 -0.0554 -5.68422 2.30543 -12.8122 -0.2447 -40.5954 -0.5145 0.65345 38.9674 8.59773 0.2447 -42.0479 -2.0602 3.85701 7.6572 2.49745 -0.3734 -10.4922 12.6407 -0.419189 -54.0657 -0.273023 9.1245 -6.6564 -0.0554 11.4105 -50.7321 8.86153 0.2447 -40.5954 -0.517 0.249637 38.7231 8.08323 -0.2447 -42.048 -2.0576 -0.689648 5.77657 -0.402106 0.3734 -10.4922 12.6407 1.84017e-006 6.9592e-007 -1.27852e-006 
-1.15091 88.576 93.6192 -1.72969 6.67326 -9.68524 1.77636e-015 9.9235 -1.2273 -0.330436 3.35358 1.65723 -0.0001 11.6454 -1.4223 -1.99586 6.89604 3.45743 0.0001 13.3602 -1.6265 -2.00733 6.88671 3.47046 1.77636e-015 15.0325 0.7929 1.42341 -2.50838 1.00258 -8.88178e-016 10.3218 3.1424 5.87354 -10.4402 -0.315307 0.0002 18.4747 6.6364 0 3.18055e-015 -0 2.9479 7.6817 9.1207 0 3.18055e-015 -0 -2.9445 7.6817 9.1205 0 3.18055e-015 -0 6.1058 9.1104 0.7056 -11.8522 0.227295 2.43767 12.655 -0.2659 -2.6009 11.4893 31.2676 -92.5485 27.4047 -2.84217e-014 -1.77636e-015 -1.46976e-005 1.16917e-005 -95.4961 27.6145 0 0 -24.9313 -35.9476 -5.47505 12.7755 0 1.42109e-014 -30.3248 -0.946513 3.49177 3.614 0 -1.42109e-014 -22.0628 -0.50636 2.59699 3.4598 0 0 -11.0262 -0.127585 1.322 3.7888 -2.167 3.0031 12.1976 -9.59293 4.00117 3.6754 -2.122 2.122 4.0543 -1.74021 25.8581 3.3944 -1.9597 1.9598 3.91277 -3.24006 10.8018 12.2666 -0.2317 2.8221 -30.3408 -0.947491 3.49343 3.892 1.42109e-014 1.42109e-014 -22.0468 -0.505635 2.59519 3.4152 0 1.42109e-014 -11.0262 -0.127594 1.322 12.147 0.0099 -2.2166 -30.3408 -0.947491 3.49343 3.6012 0 -1.42109e-014 -22.0468 -0.505635 2.59519 3.3073 0 -1.42109e-014 -11.0262 -0.127594 1.322 10.9082 -0.2264 -4.7258 -29.8332 -0.898399 7.55596 4.1367 1.42109e-014 1.42109e-014 -22.5398 1.03292 -1.15601 2.5948 0 0 -11.0262 -0.127598 1.32201 -6.1057 9.1105 0.7056 10.7924 0.201732 -2.40403 -12.655 -0.266 -2.6009 38.1871 40.4871 46.8784 -27.4047 0 0 6.14831e-006 -3.6458e-006 15.7557 -27.6145 0 0 -4.45241 -13.4198 5.23663 -12.7755 0 0 1.28339e-006 -5.93743e-007 -3.30325e-006 -3.614 1.42109e-014 0 2.78418e-005 -3.51962e-007 -1.40853e-005 -3.4598 0 1.42109e-014 1.46105e-005 -1.98612e-006 9.04626e-006 -3.7888 -2.167 3.0031 -17.8481 3.10914 -5.87485 -3.6754 -2.122 2.122 -1.02094 6.21607 -21.8032 -3.3944 -1.9597 1.9598 -2.77734 -0.353712 -6.50639 -12.2666 -0.2317 2.8221 1.28339e-006 -5.93743e-007 -3.30325e-006 -3.892 0 0 1.15472e-006 4.69151e-006 -4.37256e-006 -3.4152 0 0 3.1763e-006 -5.68108e-006 -2.91377e-006 -12.147 0.0099 -2.2166 1.28339e-006 -5.93743e-007 -3.30325e-006 -3.6012 0 -1.42109e-014 1.20609e-005 -3.51661e-007 -8.17393e-006 -3.3073 0 1.42109e-014 -3.38407e-006 -5.42504e-006 -8.15613e-006 -10.9082 -0.2264 -4.7258 1.28339e-006 -5.93743e-007 -3.30325e-006 -4.1367 0 -1.42109e-014 1.15472e-006 4.69151e-006 -4.37256e-006 -2.5948 0 0 3.1763e-006 -5.68108e-006 -2.91377e-006 -9.1245 -6.6564 -0.0554 -7.73169 1.50461 -12.4829 -0.2447 -40.5954 -0.5145 0.594139 41.3839 8.84593 0.2447 -42.0479 -2.0602 6.55822 16.6752 0.28955 -0.3734 -10.4922 12.6407 0.435578 -62.3485 0.335533 9.1245 -6.6564 -0.0554 9.1751 -51.1835 6.93281 0.2447 -40.5954 -0.517 0.32943 44.3985 8.82325 -0.2447 -42.048 -2.0576 -1.47711 1.03889 -0.403819 0.3734 -10.4922 12.6407 1.11484e-006 -0.00258115 1.27902e-006 
